<?xml version="1.0" encoding="utf-8"?>
<!-- Generator: Adobe Illustrator 27.0.0, SVG Export Plug-In . SVG Version: 6.00 Build 0)  -->
<svg version="1.1" id="Layer_1" xmlns="http://www.w3.org/2000/svg" xmlns:xlink="http://www.w3.org/1999/xlink" x="0px" y="0px"
	 viewBox="0 0 451.25 412.48" style="enable-background:new 0 0 451.25 412.48;" xml:space="preserve">
<style type="text/css">
	.st0{fill:#FFC507;}
	.st1{fill:none;stroke:#414141;stroke-width:3;stroke-miterlimit:10;}
	.st2{fill:none;stroke:#414141;stroke-width:2;stroke-miterlimit:10;}
</style>
<g>
	<polygon class="st0" points="334,18.83 46.64,255.62 395.38,386.09 	"/>
	<g>
		<path class="st1" d="M17.9,188.95h8.32v44.79H17.9V188.95z"/>
		<path class="st1" d="M78.11,188.95v44.79h-6.85l-24.7-30.33v30.33h-8.25v-44.79h6.85l24.7,30.33v-30.33H78.11z"/>
		<path class="st1" d="M98.45,195.93v13.63h21.63v7.04H98.45v17.15h-8.32v-44.79h32.7v6.97H98.45z"/>
		<path class="st1" d="M127.18,211.35c0-13.25,10.24-23.03,24.12-23.03c13.89,0,24.12,9.73,24.12,23.03s-10.24,23.03-24.12,23.03
			C137.41,234.38,127.18,224.59,127.18,211.35z M167.04,211.35c0-9.15-6.72-15.74-15.74-15.74c-9.02,0-15.74,6.59-15.74,15.74
			s6.72,15.74,15.74,15.74C160.32,227.09,167.04,220.5,167.04,211.35z"/>
		<path class="st1" d="M212.66,223.38h-22.4l-4.42,10.37h-8.57l20.16-44.79h8.19l20.22,44.79h-8.7L212.66,223.38z M209.91,216.85
			l-8.45-19.58l-8.38,19.58H209.91z"/>
		<path class="st1" d="M270.11,188.95l-19.52,44.79h-8.19l-19.58-44.79h9.02l14.91,34.55l15.04-34.55H270.11z"/>
		<path class="st1" d="M271.2,211.35c0-13.25,10.24-23.03,24.12-23.03c13.89,0,24.12,9.73,24.12,23.03s-10.24,23.03-24.12,23.03
			C281.43,234.38,271.2,224.59,271.2,211.35z M311.06,211.35c0-9.15-6.72-15.74-15.74-15.74c-9.02,0-15.74,6.59-15.74,15.74
			s6.72,15.74,15.74,15.74C304.34,227.09,311.06,220.5,311.06,211.35z"/>
		<path class="st1" d="M368.07,188.95v44.79h-6.85l-24.7-30.33v30.33h-8.25v-44.79h6.85l24.7,30.33v-30.33H368.07z"/>
		<path class="st1" d="M380.09,188.95h19.58c14.53,0,24.44,8.96,24.44,22.4s-9.92,22.4-24.44,22.4h-19.58V188.95z M399.29,226.7
			c9.98,0,16.44-6.08,16.44-15.36c0-9.28-6.46-15.36-16.44-15.36h-10.88v30.71H399.29z"/>
	</g>
	<g>
		<rect x="48.43" y="156.77" class="st2" width="7.07" height="18.28"/>
		<rect x="48.43" y="246.14" class="st2" width="7.07" height="19.78"/>
		<rect x="65.77" y="246.14" class="st2" width="7.01" height="19.78"/>
		<polygon class="st2" points="71.59,156.77 65.77,156.77 65.77,175.05 72.79,175.05 72.79,169.06 77.66,175.05 86.47,175.05 		"/>
		<rect x="92.58" y="156.77" class="st2" width="7.01" height="18.28"/>
		<polygon class="st2" points="92.58,246.14 92.58,253.63 86.47,246.14 77.66,246.14 93.77,265.92 99.59,265.92 99.59,246.14 		"/>
		<polygon class="st2" points="135.25,174.28 116.87,174.28 116.87,162.7 137.59,162.7 137.59,156.77 109.81,156.77 109.81,175.05 
			135.25,175.05 		"/>
		<polygon class="st2" points="109.81,246.14 109.81,265.92 116.87,265.92 116.87,251.35 135.25,251.35 135.25,246.14 		"/>
		<path class="st2" d="M161.78,162.43c7.41,0,12.98,5.25,13.34,12.62h7.14c-0.38-10.92-8.94-18.82-20.48-18.82
			c-11.53,0-20.1,7.95-20.48,18.82h7.14C148.8,167.67,154.36,162.43,161.78,162.43z"/>
		<path class="st2" d="M175.12,246.14c0.01,0.25,0.03,0.5,0.03,0.75c0,7.77-5.71,13.37-13.37,13.37c-7.67,0-13.37-5.6-13.37-13.37
			c0-0.26,0.02-0.5,0.03-0.75h-7.14c-0.01,0.25-0.02,0.5-0.02,0.75c0,11.25,8.7,19.57,20.5,19.57c11.8,0,20.5-8.26,20.5-19.57
			c0-0.25-0.01-0.5-0.02-0.75H175.12z"/>
		<polygon class="st2" points="204.4,163.84 209.23,175.05 216.18,175.05 207.93,156.77 200.97,156.77 192.75,175.05 199.6,175.05 
					"/>
		<polygon class="st2" points="209.23,246.14 211.57,251.57 197.28,251.57 199.6,246.14 192.75,246.14 183.85,265.92 191.13,265.92 
			194.88,257.11 213.91,257.11 217.72,265.92 225.11,265.92 216.18,246.14 		"/>
		<polygon class="st2" points="230.22,156.77 222.55,156.77 230.54,175.05 238.11,175.05 		"/>
		<polygon class="st2" points="247.71,246.14 242.89,257.22 238.11,246.14 230.54,246.14 239.19,265.92 246.15,265.92 
			254.77,246.14 		"/>
		<polygon class="st2" points="262.73,156.77 255.66,156.77 247.71,175.05 254.77,175.05 		"/>
		<path class="st2" d="M297.49,246.14c0.01,0.25,0.03,0.5,0.03,0.75c0,7.77-5.71,13.37-13.37,13.37c-7.67,0-13.37-5.6-13.37-13.37
			c0-0.26,0.02-0.5,0.03-0.75h-7.14c-0.01,0.25-0.02,0.5-0.02,0.75c0,11.25,8.7,19.57,20.5,19.57c11.8,0,20.5-8.26,20.5-19.57
			c0-0.25-0.01-0.5-0.02-0.75H297.49z"/>
		<path class="st2" d="M284.15,162.43c7.41,0,12.98,5.25,13.34,12.62h7.14c-0.38-10.92-8.94-18.82-20.48-18.82
			c-11.53,0-20.1,7.95-20.48,18.82h7.14C271.17,167.67,276.73,162.43,284.15,162.43z"/>
		<rect x="312.14" y="246.14" class="st2" width="7.01" height="19.78"/>
		<rect x="338.95" y="156.77" class="st2" width="7.01" height="18.28"/>
		<polygon class="st2" points="338.95,246.14 338.95,253.63 332.84,246.14 324.03,246.14 340.14,265.92 345.96,265.92 
			345.96,246.14 		"/>
		<polygon class="st2" points="317.96,156.77 312.14,156.77 312.14,175.05 319.16,175.05 319.16,169.06 324.03,175.05 
			332.84,175.05 		"/>
		<path class="st2" d="M386.42,246.14c0.01,0.25,0.03,0.5,0.03,0.75c0,7.88-5.49,13.05-13.97,13.05h-9.24v-13.8h-7.07v19.78h16.64
			c12.34,0,20.77-7.61,20.77-19.03c0-0.26-0.03-0.5-0.03-0.75H386.42z"/>
		<path class="st2" d="M363.24,162.75h9.24c8.21,0,13.6,4.84,13.94,12.3h7.12c-0.37-10.99-8.67-18.28-20.73-18.28h-16.64v18.28h7.07
			V162.75z"/>
	</g>
</g>
</svg>
