<?xml version="1.0" encoding="utf-8"?>
<!-- Generator: Adobe Illustrator 27.0.0, SVG Export Plug-In . SVG Version: 6.00 Build 0)  -->
<svg version="1.1" id="Layer_1" xmlns="http://www.w3.org/2000/svg" xmlns:xlink="http://www.w3.org/1999/xlink" x="0px" y="0px"
	 viewBox="0 0 418.38 308.98" style="enable-background:new 0 0 418.38 308.98;" xml:space="preserve">
<style type="text/css">
	.st0{fill:#FFC507;}
	.st1{fill:none;stroke:#000000;stroke-width:3;stroke-miterlimit:10;}
	.st2{fill:none;stroke:#000000;stroke-width:2;stroke-miterlimit:10;}
</style>
<polygon class="st0" points="287.87,283.16 319.17,22.37 78.5,128.8 "/>
<g>
	<path class="st1" d="M22.66,186.85l2.3-5.16c2.86,2.3,7.4,3.93,11.79,3.93c5.56,0,7.91-1.99,7.91-4.65
		c0-7.71-21.24-2.66-21.24-15.93c0-5.77,4.59-10.67,14.4-10.67c4.29,0,8.78,1.12,11.89,3.17l-2.09,5.16
		c-3.22-1.89-6.74-2.81-9.85-2.81c-5.51,0-7.76,2.14-7.76,4.85c0,7.61,21.19,2.65,21.19,15.77c0,5.72-4.65,10.62-14.45,10.62
		C31.19,191.14,25.63,189.41,22.66,186.85z"/>
	<path class="st1" d="M55.24,172.76c0-10.67,8.17-18.38,19.14-18.38c5.82,0,10.82,2.09,14.14,5.97l-4.29,4.03
		c-2.6-2.81-5.82-4.19-9.55-4.19c-7.4,0-12.76,5.21-12.76,12.56c0,7.35,5.36,12.56,12.76,12.56c3.73,0,6.94-1.38,9.55-4.24
		l4.29,4.08c-3.32,3.88-8.32,5.97-14.19,5.97C63.41,191.14,55.24,183.44,55.24,172.76z"/>
	<path class="st1" d="M126.67,154.9v35.74h-6.64v-15.32h-18.48v15.32h-6.64V154.9h6.64v14.75h18.48V154.9H126.67z"/>
	<path class="st1" d="M133.72,172.76c0-10.57,8.17-18.38,19.25-18.38c11.08,0,19.25,7.76,19.25,18.38
		c0,10.62-8.17,18.38-19.25,18.38C141.89,191.14,133.72,183.33,133.72,172.76z M165.52,172.76c0-7.3-5.36-12.56-12.56-12.56
		c-7.2,0-12.56,5.26-12.56,12.56c0,7.3,5.36,12.56,12.56,12.56C160.16,185.32,165.52,180.07,165.52,172.76z"/>
	<path class="st1" d="M176.71,172.76c0-10.57,8.17-18.38,19.25-18.38c11.08,0,19.25,7.76,19.25,18.38
		c0,10.62-8.17,18.38-19.25,18.38C184.88,191.14,176.71,183.33,176.71,172.76z M208.52,172.76c0-7.3-5.36-12.56-12.56-12.56
		c-7.2,0-12.56,5.26-12.56,12.56c0,7.3,5.36,12.56,12.56,12.56C203.16,185.32,208.52,180.07,208.52,172.76z"/>
	<path class="st1" d="M222.26,154.9h6.64v30.12h18.68v5.62h-25.32V154.9z"/>
	<path class="st1" d="M282.96,154.9l-15.57,35.74h-6.53l-15.62-35.74h7.2l11.89,27.57l12-27.57H282.96z"/>
	<path class="st1" d="M286.74,154.9h6.64v35.74h-6.64V154.9z"/>
	<path class="st1" d="M300.02,186.85l2.3-5.16c2.86,2.3,7.4,3.93,11.79,3.93c5.56,0,7.91-1.99,7.91-4.65
		c0-7.71-21.24-2.66-21.24-15.93c0-5.77,4.59-10.67,14.4-10.67c4.29,0,8.78,1.12,11.89,3.17l-2.09,5.16
		c-3.22-1.89-6.74-2.81-9.85-2.81c-5.51,0-7.76,2.14-7.76,4.85c0,7.61,21.19,2.65,21.19,15.77c0,5.72-4.65,10.62-14.45,10.62
		C308.55,191.14,302.98,189.41,300.02,186.85z"/>
	<path class="st1" d="M335.15,154.9h6.64v35.74h-6.64V154.9z"/>
	<path class="st1" d="M378.24,185.07v5.56h-26.8V154.9h26.09v5.56h-19.45v9.29h17.26v5.46h-17.26v9.85H378.24z"/>
</g>
<g>
	<path class="st2" d="M49.17,137.32c0-2.4,1.99-4.31,6.89-4.31c2.76,0,5.89,0.82,8.75,2.49l1.86-4.58
		c-2.76-1.81-6.75-2.81-10.56-2.81c-8.7,0-12.78,4.35-12.78,9.47c0,3.57,1.74,5.64,4.15,6.99h16.68
		C58.65,141.3,49.17,142.12,49.17,137.32z"/>
	<path class="st2" d="M64.15,201.24H47.47c5.55,3.11,14.7,2.38,14.7,7.15c0,2.36-2.08,4.12-7.02,4.12c-3.9,0-7.93-1.45-10.47-3.49
		l-2.04,4.58c2.63,2.27,7.57,3.81,12.51,3.81c8.7,0,12.82-4.35,12.82-9.43C67.98,204.6,66.39,202.58,64.15,201.24z"/>
	<path class="st2" d="M77.5,144.44c0-6.52,4.76-11.15,11.33-11.15c3.31,0,6.16,1.22,8.47,3.72l3.81-3.58
		c-2.95-3.44-7.39-5.3-12.55-5.3c-9.74,0-16.99,6.84-16.99,16.31c0,0.05,0.01,0.1,0.01,0.15h5.94
		C77.5,144.54,77.5,144.49,77.5,144.44z"/>
	<path class="st2" d="M88.82,212.24c-6.52,0-11.25-4.55-11.32-11h-5.94c0.08,9.39,7.29,16.16,16.94,16.16c5.21,0,9.65-1.86,12.6-5.3
		l-3.81-3.62C94.99,211.01,92.13,212.24,88.82,212.24z"/>
	<polygon class="st2" points="134.96,128.58 129.07,128.58 129.07,141.67 112.67,141.67 112.67,128.58 106.77,128.58 106.77,144.59 
		134.96,144.59 	"/>
	<polygon class="st2" points="106.77,201.24 106.77,216.95 112.67,216.95 112.67,203.36 129.07,203.36 129.07,216.95 134.96,216.95 
		134.96,201.24 	"/>
	<path class="st2" d="M147.15,144.44c0-6.48,4.76-11.15,11.15-11.15c6.39,0,11.15,4.67,11.15,11.15c0,0.05-0.01,0.1-0.01,0.15h5.94
		c0-0.05,0.01-0.1,0.01-0.15c0-9.43-7.25-16.31-17.08-16.31c-9.83,0-17.08,6.93-17.08,16.31c0,0.05,0.01,0.1,0.01,0.15h5.94
		C147.16,144.54,147.15,144.49,147.15,144.44z"/>
	<path class="st2" d="M169.44,201.24c-0.07,6.4-4.8,11-11.14,11c-6.34,0-11.07-4.6-11.14-11h-5.94c0.08,9.3,7.3,16.16,17.08,16.16
		c9.78,0,17-6.82,17.08-16.16H169.44z"/>
	<path class="st2" d="M207.6,201.24c-0.07,6.4-4.8,11-11.14,11c-6.34,0-11.07-4.6-11.14-11h-5.94c0.08,9.3,7.3,16.16,17.08,16.16
		c9.78,0,17-6.82,17.08-16.16H207.6z"/>
	<path class="st2" d="M185.32,144.44c0-6.48,4.76-11.15,11.15-11.15c6.39,0,11.15,4.67,11.15,11.15c0,0.05-0.01,0.1-0.01,0.15h5.94
		c0-0.05,0.01-0.1,0.01-0.15c0-9.43-7.25-16.31-17.08-16.31c-9.83,0-17.08,6.93-17.08,16.31c0,0.05,0.01,0.1,0.01,0.15h5.94
		C185.32,144.54,185.32,144.49,185.32,144.44z"/>
	<rect x="219.81" y="128.58" class="st2" width="5.89" height="16.01"/>
	<polygon class="st2" points="225.7,201.24 219.81,201.24 219.81,216.95 242.28,216.95 242.28,211.97 225.7,211.97 	"/>
	<polygon class="st2" points="246.59,128.58 240.2,128.58 247.2,144.59 253.5,144.59 	"/>
	<polygon class="st2" points="273.69,128.58 267.8,128.58 260.83,144.59 266.71,144.59 	"/>
	<polygon class="st2" points="260.83,201.24 257.15,209.7 253.5,201.24 247.2,201.24 254.07,216.95 259.87,216.95 266.71,201.24 	
		"/>
	<rect x="277.05" y="201.24" class="st2" width="5.89" height="15.71"/>
	<rect x="277.05" y="128.58" class="st2" width="5.89" height="16.01"/>
	<path class="st2" d="M310.34,201.24h-16.68c5.55,3.11,14.7,2.38,14.7,7.15c0,2.36-2.08,4.12-7.02,4.12c-3.9,0-7.93-1.45-10.47-3.49
		l-2.04,4.58c2.63,2.27,7.57,3.81,12.51,3.81c8.7,0,12.82-4.35,12.82-9.43C314.16,204.6,312.58,202.58,310.34,201.24z"/>
	<path class="st2" d="M295.36,137.32c0-2.4,1.99-4.31,6.89-4.31c2.76,0,5.89,0.82,8.75,2.49l1.86-4.58
		c-2.76-1.81-6.75-2.81-10.56-2.81c-8.7,0-12.78,4.35-12.78,9.47c0,3.57,1.74,5.64,4.15,6.99h16.68
		C304.84,141.3,295.36,142.12,295.36,137.32z"/>
	<rect x="320.01" y="128.58" class="st2" width="5.89" height="16.01"/>
	<rect x="320.01" y="201.24" class="st2" width="5.89" height="15.71"/>
	<polygon class="st2" points="355.67,141.77 340.36,141.77 340.36,133.52 357.62,133.52 357.62,128.58 334.47,128.58 334.47,144.59 
		355.67,144.59 	"/>
	<polygon class="st2" points="340.36,203.27 355.67,203.27 355.67,201.24 334.47,201.24 334.47,216.95 358.26,216.95 358.26,212.01 
		340.36,212.01 	"/>
</g>
</svg>
