<?xml version="1.0" encoding="utf-8"?>
<!-- Generator: Adobe Illustrator 27.0.1, SVG Export Plug-In . SVG Version: 6.00 Build 0)  -->
<svg version="1.1" id="Layer_1" xmlns="http://www.w3.org/2000/svg" xmlns:xlink="http://www.w3.org/1999/xlink" x="0px" y="0px"
	 viewBox="0 0 1563.9 857.7" style="enable-background:new 0 0 1563.9 857.7;" xml:space="preserve">
<style type="text/css">
	.st0{opacity:0.3;fill:#414141;enable-background:new    ;}
	.st1{fill:none;stroke:#FFC507;stroke-width:3;stroke-miterlimit:10;}
	.st2{fill:none;stroke:#FFC507;stroke-width:2;stroke-miterlimit:10;}
</style>
<g>
	
		<image style="overflow:visible;enable-background:new    ;" width="1348" height="739" xlink:href="3F2AAFC2ED1EE601.jpeg"  transform="matrix(1.1625 0 0 1.1602 -1.2057 0.1496)">
	</image>
	<rect x="-1.2" class="st0" width="1567.1" height="857.7"/>
</g>
<g>
	<path class="st1" d="M357.5,386.8l-27.8,84h-16.6l-20.8-62.2l-21.1,62.2h-16.7l-27.8-84h16.2l20.9,63.9l21.7-63.9h14.4l21.2,64.2
		l21.5-64.2H357.5z"/>
	<path class="st1" d="M370.2,386.8h15.6v84h-15.6V386.8z"/>
	<path class="st1" d="M395.7,459.9l8.9-10.7c4.6,6.2,10.1,9.6,16.7,9.6c8.6,0,13.1-5.2,13.1-15.5v-43.5h-29.9v-13.1h45.5v55.7
		c0,19.8-9.8,29.5-28.3,29.5C411,472.1,401.4,467.7,395.7,459.9z"/>
	<path class="st1" d="M570.2,457.7v13.2h-71.6v-10.4l49.4-60.4h-48.6v-13.2h69.2v10.4l-49.5,60.4H570.2z"/>
	<path class="st1" d="M577.5,428.9c0-24.8,19.2-43.2,45.2-43.2c26,0,45.2,18.2,45.2,43.2c0,25-19.2,43.2-45.2,43.2
		C596.7,472.1,577.5,453.7,577.5,428.9z M652.3,428.9c0-17.2-12.6-29.5-29.5-29.5c-16.9,0-29.5,12.4-29.5,29.5s12.6,29.5,29.5,29.5
		C639.7,458.4,652.3,446,652.3,428.9z"/>
	<path class="st1" d="M747.6,457.8v13.1h-63v-84h61.3v13.1h-45.7v21.8h40.6v12.8h-40.6v23.2L747.6,457.8L747.6,457.8z"/>
	<path class="st1" d="M793.9,435.7l-13.3,13.7v21.5H765v-84h15.6v43.1l41.5-43.1h17.5l-35.3,37.6l37.5,46.5h-18.2L793.9,435.7z"/>
	<path class="st1" d="M915.5,457.8v13.1h-63v-84h61.3v13.1h-45.7v21.8h40.6v12.8h-40.6v23.2L915.5,457.8L915.5,457.8z"/>
	<path class="st1" d="M1007.5,386.8v84h-12.8L948.4,414v56.9h-15.5v-84h12.8l46.3,56.9v-56.9L1007.5,386.8L1007.5,386.8z"/>
	<path class="st1" d="M1050.4,459.9l8.9-10.7c4.6,6.2,10.1,9.6,16.7,9.6c8.6,0,13.1-5.2,13.1-15.5v-43.5h-29.9v-13.1h45.5v55.7
		c0,19.8-9.8,29.5-28.3,29.5C1065.8,472.1,1056.2,467.7,1050.4,459.9z"/>
	<path class="st1" d="M1120.5,428.9c0-24.8,19.2-43.2,45.2-43.2s45.2,18.2,45.2,43.2c0,25-19.2,43.2-45.2,43.2
		S1120.5,453.7,1120.5,428.9z M1195.3,428.9c0-17.2-12.6-29.5-29.5-29.5s-29.5,12.4-29.5,29.5s12.6,29.5,29.5,29.5
		S1195.3,446,1195.3,428.9z"/>
	<path class="st1" d="M1226.8,434.2v-47.4h15.6v46.8c0,17.3,7.8,24.7,21.4,24.7s21.2-7.4,21.2-24.7v-46.8h15.4v47.4
		c0,24.5-13.8,37.8-36.7,37.8C1240.6,472.1,1226.8,458.7,1226.8,434.2z"/>
	<path class="st1" d="M1318.1,462.3c0-5.2,4.1-9.2,9.7-9.2c5.5,0,9.5,4.1,9.5,9.2s-4,9.4-9.5,9.4
		C1322.1,471.7,1318.1,467.5,1318.1,462.3z M1318.9,386.8h17.8l-3,56.2h-11.9L1318.9,386.8z"/>
</g>
<g>
	<polygon class="st2" points="284.7,330.1 269.7,330.1 282.9,369.9 297.7,369.9 	"/>
	<polygon class="st2" points="304,509 297.7,489.9 282.9,489.9 295.4,527.6 310.8,527.6 323.6,489.9 310.5,489.9 	"/>
	<polygon class="st2" points="390.4,330.1 376.7,330.1 363.4,369.9 377.2,369.9 	"/>
	<polygon class="st2" points="363.4,489.9 356.9,509.3 350.4,489.9 336.9,489.9 349.5,527.6 364.7,527.6 377.2,489.9 	"/>
	<polygon class="st2" points="337.3,330.1 324,330.1 310.5,369.9 323.6,369.9 330.3,350.2 336.9,369.9 350.4,369.9 	"/>
	<rect x="402.2" y="330.1" class="st2" width="14.4" height="39.8"/>
	<rect x="402.2" y="489.9" class="st2" width="14.4" height="37.7"/>
	<polygon class="st2" points="475.7,330.1 433.7,330.1 433.7,342.2 461.3,342.2 461.3,369.9 475.7,369.9 	"/>
	<path class="st2" d="M461.3,489.9v12.4c0,9.5-4.1,14.3-12.1,14.3c-6.1,0-11.2-3.1-15.4-8.9l-8.2,9.8c5.3,7.2,14.2,11.2,23.9,11.2
		c17,0,26.1-9,26.1-27.2v-11.6L461.3,489.9L461.3,489.9z"/>
	<polygon class="st2" points="560.5,489.9 543.5,489.9 520.5,518 520.5,527.6 586.6,527.6 586.6,515.4 539.5,515.4 	"/>
	<polygon class="st2" points="585.2,339.7 585.2,330.1 521.3,330.1 521.3,342.3 566.1,342.3 543.5,369.9 560.5,369.9 	"/>
	<path class="st2" d="M607.9,368.8c0-15.8,11.6-27.2,27.2-27.2c15.6,0,27.2,11.4,27.2,27.2c0,0.3,0,0.7,0,1h14.5c0-0.3,0-0.7,0-1
		c0-23-17.7-39.9-41.7-39.9c-24,0-41.7,16.9-41.7,39.9c0,0.3,0,0.7,0,1h14.5C607.9,369.5,607.9,369.2,607.9,368.8z"/>
	<path class="st2" d="M662.3,489.9c-0.5,15.3-11.9,26.2-27.2,26.2c-15.3,0-26.7-10.9-27.2-26.2h-14.5c0.5,22.4,18,38.9,41.7,38.9
		c23.7,0,41.2-16.3,41.7-38.9L662.3,489.9L662.3,489.9z"/>
	<polygon class="st2" points="706.5,494.2 743.9,494.2 743.9,489.9 692.1,489.9 692.1,527.6 750.2,527.6 750.2,515.5 706.5,515.5 	
		"/>
	<polygon class="st2" points="743.9,362.3 706.5,362.3 706.5,342.2 748.7,342.2 748.7,330.1 692.1,330.1 692.1,369.9 743.9,369.9 	
		"/>
	<polygon class="st2" points="802.6,364.7 835.2,330.1 819,330.1 780.7,369.8 780.7,330.1 766.3,330.1 766.3,369.9 806.7,369.9 	"/>
	<polygon class="st2" points="766.3,489.9 766.3,527.6 780.7,527.6 780.7,507.8 793,495.2 820.3,527.6 837.2,527.6 806.7,489.9 	"/>
	<polygon class="st2" points="898.8,362.3 861.4,362.3 861.4,342.2 903.6,342.2 903.6,330.1 847,330.1 847,369.9 898.8,369.9 	"/>
	<polygon class="st2" points="861.4,494.2 898.8,494.2 898.8,489.9 847,489.9 847,527.6 905.1,527.6 905.1,515.5 861.4,515.5 	"/>
	<rect x="921.2" y="489.9" class="st2" width="14.3" height="37.7"/>
	<polygon class="st2" points="975.8,489.9 975.8,502.6 965.4,489.9 947.5,489.9 978.2,527.6 990,527.6 990,489.9 	"/>
	<rect x="975.8" y="330.1" class="st2" width="14.3" height="39.8"/>
	<polygon class="st2" points="933,330.1 921.2,330.1 921.2,369.9 935.5,369.9 935.5,355.1 947.5,369.9 965.4,369.9 	"/>
	<path class="st2" d="M1065.2,489.9v12.4c0,9.5-4.1,14.3-12.1,14.3c-6.1,0-11.2-3.1-15.4-8.9l-8.2,9.8c5.3,7.2,14.2,11.2,23.9,11.2
		c17.1,0,26.1-9,26.1-27.2v-11.6L1065.2,489.9L1065.2,489.9z"/>
	<polygon class="st2" points="1079.6,330.1 1037.7,330.1 1037.7,342.2 1065.2,342.2 1065.2,369.9 1079.6,369.9 	"/>
	<path class="st2" d="M1108.7,368.8c0-15.8,11.6-27.2,27.2-27.2c15.6,0,27.2,11.4,27.2,27.2c0,0.3,0,0.7,0,1h14.5c0-0.3,0-0.7,0-1
		c0-23-17.7-39.9-41.7-39.9c-24,0-41.7,16.9-41.7,39.9c0,0.3,0,0.7,0,1h14.5C1108.8,369.5,1108.7,369.2,1108.7,368.8z"/>
	<path class="st2" d="M1163.2,489.9c-0.5,15.3-11.9,26.2-27.2,26.2c-15.3,0-26.7-10.9-27.2-26.2h-14.5c0.5,22.4,18.1,38.9,41.7,38.9
		c23.7,0,41.2-16.3,41.7-38.9L1163.2,489.9L1163.2,489.9z"/>
	<rect x="1192.3" y="330.1" class="st2" width="14.4" height="39.8"/>
	<rect x="1246" y="330.1" class="st2" width="14.2" height="39.8"/>
	<path class="st2" d="M1246,489.9v3.4c0,15.9-7.1,22.8-19.6,22.8s-19.7-6.9-19.7-22.8v-3.4h-14.4v4c0,22.6,12.7,34.9,34,34.9
		c21.2,0,33.9-12.3,33.9-34.9v-4L1246,489.9L1246,489.9z"/>
	<polygon class="st2" points="1290.9,501.9 1291.5,489.9 1279.3,489.9 1279.9,501.9 	"/>
	<polygon class="st2" points="1293.6,330.1 1277.2,330.1 1279.3,369.9 1291.5,369.9 	"/>
	<path class="st2" d="M1285.4,511.2c-5.2,0-9,3.8-9,8.5c0,4.8,3.8,8.6,9,8.6c5.1,0,8.8-3.9,8.8-8.6
		C1294.2,515,1290.5,511.2,1285.4,511.2z"/>
</g>
<g>
	<g>
		<path class="st2" d="M84.6,678.6H95v47.2h29.3v8.8H84.6V678.6z"/>
		<path class="st2" d="M171.1,716.4h-33.5c1.2,6.2,6.4,10.2,13.8,10.2c4.8,0,8.6-1.5,11.6-4.6l5.4,6.2c-3.8,4.6-9.8,7-17.2,7
			c-14.3,0-23.6-9.2-23.6-21.9c0-12.7,9.4-21.8,22.1-21.8c12.5,0,21.6,8.7,21.6,22.1C171.3,714.3,171.2,715.5,171.1,716.4z
			 M137.5,709.8h24.2c-0.8-6.2-5.5-10.4-12.1-10.4C143.2,699.4,138.5,703.5,137.5,709.8z"/>
		<path class="st2" d="M220.9,716.4h-33.5c1.2,6.2,6.4,10.2,13.8,10.2c4.8,0,8.6-1.5,11.6-4.6l5.4,6.2c-3.8,4.6-9.8,7-17.2,7
			c-14.3,0-23.6-9.2-23.6-21.9c0-12.7,9.4-21.8,22.1-21.8c12.5,0,21.6,8.7,21.6,22.1C221.1,714.3,221,715.5,220.9,716.4z
			 M187.3,709.8h24.2c-0.8-6.2-5.5-10.4-12.1-10.4C193,699.4,188.3,703.5,187.3,709.8z"/>
		<path class="st2" d="M255.4,691.4v9.5c-0.9-0.2-1.6-0.2-2.3-0.2c-7.6,0-12.4,4.5-12.4,13.2v20.7h-10v-42.7h9.5v6.2
			C243.1,693.6,248.3,691.4,255.4,691.4z"/>
		<path class="st2" d="M281.3,716.3l-7.4,7v11.3h-10v-59.4h10v35.8l20.7-19.2h12l-17.8,17.9l19.5,24.8h-12.2L281.3,716.3z"/>
		<path class="st2" d="M339.1,691.4v9.5c-0.9-0.2-1.6-0.2-2.3-0.2c-7.6,0-12.4,4.5-12.4,13.2v20.7h-10v-42.7h9.5v6.2
			C326.7,693.6,331.9,691.4,339.1,691.4z"/>
		<path class="st2" d="M383.1,709.5v25h-9.4v-5.2c-2.4,3.7-7,5.8-13.4,5.8c-9.8,0-15.9-5.4-15.9-12.8c0-7.1,4.8-12.7,17.8-12.7h11
			V709c0-5.8-3.5-9.3-10.6-9.3c-4.8,0-9.8,1.6-13,4.2l-3.9-7.3c4.6-3.5,11.2-5.3,18.1-5.3C375.9,691.4,383.1,697.2,383.1,709.5z
			 M373.1,721.2v-5h-10.3c-6.8,0-8.6,2.6-8.6,5.7c0,3.6,3,5.9,8.2,5.9C367.1,727.9,371.4,725.6,373.1,721.2z"/>
		<path class="st2" d="M392.7,713.2c0-12.8,9.6-21.8,23.1-21.8c8.3,0,15,3.4,18.2,9.9l-7.7,4.5c-2.6-4.1-6.4-5.9-10.6-5.9
			c-7.4,0-13,5.1-13,13.4c0,8.3,5.6,13.4,13,13.4c4.2,0,8.1-1.8,10.6-5.9l7.7,4.5c-3.3,6.4-9.9,10-18.2,10
			C402.3,735.1,392.7,726,392.7,713.2z"/>
		<path class="st2" d="M484.4,710.1v24.5h-10v-23.2c0-7.6-3.8-11.3-10.2-11.3c-7.1,0-11.9,4.3-11.9,12.9v21.6h-10v-59.4h10v21.6
			c3.3-3.5,8.3-5.4,14.2-5.4C476.8,691.4,484.4,697.2,484.4,710.1z"/>
		<path class="st2" d="M522.8,732.3c-2.4,1.9-6,2.9-9.6,2.9c-9.4,0-14.7-5-14.7-14.4v-20.6h-7v-8h7v-9.8h10v9.8h11.4v8h-11.4v20.3
			c0,4.2,2.1,6.4,5.9,6.4c2.1,0,4.1-0.6,5.6-1.8L522.8,732.3z"/>
		<path class="st2" d="M569.6,716.4h-33.5c1.2,6.2,6.4,10.2,13.8,10.2c4.8,0,8.6-1.5,11.6-4.6l5.4,6.2c-3.8,4.6-9.8,7-17.2,7
			c-14.3,0-23.6-9.2-23.6-21.9c0-12.7,9.4-21.8,22.1-21.8c12.5,0,21.6,8.7,21.6,22.1C569.8,714.3,569.7,715.5,569.6,716.4z
			 M536,709.8h24.2c-0.8-6.2-5.5-10.4-12.1-10.4C541.7,699.4,537,703.5,536,709.8z"/>
		<path class="st2" d="M621.5,710.1v24.5h-10v-23.2c0-7.6-3.8-11.3-10.2-11.3c-7.1,0-11.9,4.3-11.9,12.9v21.6h-10v-42.7h9.5v5.5
			c3.3-3.9,8.5-6,14.7-6C613.9,691.4,621.5,697.2,621.5,710.1z"/>
		<path class="st2" d="M651.4,730.3l3.8-7.6c3.8,2.5,9.5,4.2,14.9,4.2c6.3,0,9-1.8,9-4.7c0-8.2-26.4-0.5-26.4-17.5
			c0-8.1,7.3-13.4,18.8-13.4c5.7,0,12.2,1.4,16,3.7l-3.8,7.6c-4.1-2.4-8.2-3.2-12.2-3.2c-6.1,0-9,2-9,4.8c0,8.6,26.4,1,26.4,17.7
			c0,8-7.4,13.2-19.4,13.2C662.3,735.1,655.2,733.1,651.4,730.3z"/>
		<path class="st2" d="M737.5,716.4h-33.5c1.2,6.2,6.4,10.2,13.8,10.2c4.8,0,8.6-1.5,11.6-4.6l5.4,6.2c-3.8,4.6-9.8,7-17.2,7
			c-14.3,0-23.6-9.2-23.6-21.9c0-12.7,9.4-21.8,22.1-21.8c12.5,0,21.6,8.7,21.6,22.1C737.6,714.3,737.5,715.5,737.5,716.4z
			 M703.9,709.8h24.2c-0.8-6.2-5.5-10.4-12.1-10.4C709.5,699.4,704.8,703.5,703.9,709.8z"/>
		<path class="st2" d="M743.7,713.2c0-12.8,9.6-21.8,23.1-21.8c8.3,0,15,3.4,18.2,9.9l-7.7,4.5c-2.6-4.1-6.4-5.9-10.6-5.9
			c-7.4,0-13,5.1-13,13.4c0,8.3,5.6,13.4,13,13.4c4.2,0,8.1-1.8,10.6-5.9l7.7,4.5c-3.3,6.4-9.9,10-18.2,10
			C753.3,735.1,743.7,726,743.7,713.2z"/>
		<path class="st2" d="M835.1,691.9v42.7h-9.5v-5.4c-3.2,3.9-8.2,6-13.8,6c-11,0-18.4-6-18.4-18.9v-24.4h10v23
			c0,7.8,3.7,11.4,10,11.4c7,0,11.7-4.3,11.7-12.9v-21.6H835.1z"/>
		<path class="st2" d="M890.3,710.1v24.5h-10v-23.2c0-7.6-3.8-11.3-10.2-11.3c-7.1,0-11.9,4.3-11.9,12.9v21.6h-10v-42.7h9.5v5.5
			c3.3-3.9,8.5-6,14.7-6C882.7,691.4,890.3,697.2,890.3,710.1z"/>
		<path class="st2" d="M945.2,675.2v59.4h-9.6v-5.5c-3.4,4.1-8.3,6.1-14.2,6.1c-12.4,0-21.6-8.6-21.6-21.9s9.2-21.8,21.6-21.8
			c5.5,0,10.4,1.8,13.8,5.8v-21.9H945.2z M935.4,713.2c0-8.2-5.5-13.4-12.7-13.4s-12.7,5.2-12.7,13.4s5.5,13.4,12.7,13.4
			S935.4,721.4,935.4,713.2z"/>
		<path class="st2" d="M994.1,709.5v25h-9.4v-5.2c-2.4,3.7-7,5.8-13.4,5.8c-9.8,0-15.9-5.4-15.9-12.8c0-7.1,4.8-12.7,17.8-12.7h11
			V709c0-5.8-3.5-9.3-10.6-9.3c-4.8,0-9.8,1.6-13,4.2l-3.9-7.3c4.6-3.5,11.2-5.3,18.1-5.3C987,691.4,994.1,697.2,994.1,709.5z
			 M984.1,721.2v-5h-10.3c-6.8,0-8.6,2.6-8.6,5.7c0,3.6,3,5.9,8.2,5.9C978.2,727.9,982.4,725.6,984.1,721.2z"/>
		<path class="st2" d="M1005.5,678.8c0-3.4,2.7-6,6.4-6c3.7,0,6.4,2.5,6.4,5.8c0,3.5-2.6,6.2-6.4,6.2
			C1008.3,684.8,1005.5,682.2,1005.5,678.8z M1006.9,691.9h10v42.7h-10V691.9z"/>
		<path class="st2" d="M1054.7,691.4v9.5c-0.9-0.2-1.6-0.2-2.3-0.2c-7.6,0-12.4,4.5-12.4,13.2v20.7h-10v-42.7h9.5v6.2
			C1042.4,693.6,1047.6,691.4,1054.7,691.4z"/>
		<path class="st2" d="M1082.2,713.2c0-12.8,9.6-21.8,22.7-21.8c13.3,0,22.8,9,22.8,21.8c0,12.8-9.5,21.9-22.8,21.9
			C1091.8,735.1,1082.2,726,1082.2,713.2z M1117.6,713.2c0-8.2-5.4-13.4-12.7-13.4c-7.2,0-12.6,5.2-12.6,13.4s5.4,13.4,12.6,13.4
			C1112.2,726.6,1117.6,721.4,1117.6,713.2z"/>
		<path class="st2" d="M1179.4,710.1v24.5h-10v-23.2c0-7.6-3.8-11.3-10.2-11.3c-7.1,0-11.9,4.3-11.9,12.9v21.6h-10v-42.7h9.5v5.5
			c3.3-3.9,8.5-6,14.7-6C1171.8,691.4,1179.4,697.2,1179.4,710.1z"/>
		<path class="st2" d="M1234.3,675.2v59.4h-9.6v-5.5c-3.4,4.1-8.3,6.1-14.2,6.1c-12.4,0-21.6-8.6-21.6-21.9s9.2-21.8,21.6-21.8
			c5.5,0,10.4,1.8,13.8,5.8v-21.9H1234.3z M1224.5,713.2c0-8.2-5.5-13.4-12.7-13.4s-12.7,5.2-12.7,13.4s5.5,13.4,12.7,13.4
			S1224.5,721.4,1224.5,713.2z"/>
		<path class="st2" d="M1287.5,716.4h-33.5c1.2,6.2,6.4,10.2,13.8,10.2c4.8,0,8.6-1.5,11.6-4.6l5.4,6.2c-3.8,4.6-9.8,7-17.2,7
			c-14.3,0-23.6-9.2-23.6-21.9c0-12.7,9.4-21.8,22.1-21.8c12.5,0,21.6,8.7,21.6,22.1C1287.6,714.3,1287.5,715.5,1287.5,716.4z
			 M1253.9,709.8h24.2c-0.8-6.2-5.5-10.4-12.1-10.4C1259.5,699.4,1254.8,703.5,1253.9,709.8z"/>
		<path class="st2" d="M1321.9,691.4v9.5c-0.9-0.2-1.6-0.2-2.3-0.2c-7.6,0-12.4,4.5-12.4,13.2v20.7h-10v-42.7h9.5v6.2
			C1309.6,693.6,1314.8,691.4,1321.9,691.4z"/>
		<path class="st2" d="M1398.7,691.9l-15.8,42.7h-9.6l-11-29.4l-11.2,29.4h-9.6l-15.7-42.7h9.4l11.3,31.5l11.8-31.5h8.4l11.5,31.7
			l11.6-31.7H1398.7z"/>
		<path class="st2" d="M1404.2,678.8c0-3.4,2.7-6,6.4-6c3.7,0,6.4,2.5,6.4,5.8c0,3.5-2.6,6.2-6.4,6.2
			C1406.9,684.8,1404.2,682.2,1404.2,678.8z M1405.5,691.9h10v42.7h-10V691.9z"/>
		<path class="st2" d="M1414.6,748.2l2.9-7.4c1.5,1.1,3.6,1.7,5.8,1.7c3.7,0,5.8-2.2,5.8-6.8v-43.8h10v43.5
			c0,9.4-5.4,15.3-14.9,15.3C1420.6,750.7,1417,749.9,1414.6,748.2z M1427.7,678.8c0-3.4,2.7-6,6.4-6c3.7,0,6.4,2.5,6.4,5.8
			c0,3.5-2.6,6.2-6.4,6.2C1430.4,684.8,1427.7,682.2,1427.7,678.8z"/>
		<path class="st2" d="M1447.4,730.3l3.8-7.6c3.8,2.5,9.5,4.2,14.9,4.2c6.3,0,9-1.8,9-4.7c0-8.2-26.4-0.5-26.4-17.5
			c0-8.1,7.3-13.4,18.8-13.4c5.7,0,12.2,1.4,16,3.7l-3.8,7.6c-4.1-2.4-8.2-3.2-12.2-3.2c-6.1,0-9,2-9,4.8c0,8.6,26.4,1,26.4,17.7
			c0,8-7.4,13.2-19.4,13.2C1458.3,735.1,1451.2,733.1,1447.4,730.3z"/>
	</g>
</g>
</svg>
