<?xml version="1.0" encoding="utf-8"?>
<!-- Generator: Adobe Illustrator 27.0.0, SVG Export Plug-In . SVG Version: 6.00 Build 0)  -->
<svg version="1.1" id="Layer_1" xmlns="http://www.w3.org/2000/svg" xmlns:xlink="http://www.w3.org/1999/xlink" x="0px" y="0px"
	 viewBox="0 0 634.78 308.21" style="enable-background:new 0 0 634.78 308.21;" xml:space="preserve">
<style type="text/css">
	.st0{fill:#FFC507;}
	.st1{fill:none;stroke:#000000;stroke-width:3;}
	.st2{fill:none;stroke:#000000;stroke-width:2;}
</style>
<polygon class="st0" points="422.51,260.1 259.5,18.14 134.44,282.32 "/>
<g>
	<path class="st1" d="M20.84,143.48h15.3c11.35,0,19.1,7,19.1,17.5s-7.75,17.5-19.1,17.5h-15.3V143.48z M35.84,172.98
		c7.8,0,12.85-4.75,12.85-12c0-7.25-5.05-12-12.85-12h-8.5v24H35.84z"/>
	<path class="st1" d="M84.35,170.38h-17.5l-3.45,8.1h-6.7l15.75-35h6.4l15.8,35h-6.8L84.35,170.38z M82.19,165.28l-6.6-15.3
		l-6.55,15.3H82.19z"/>
	<path class="st1" d="M130.2,143.48v35h-5.35l-19.3-23.7v23.7h-6.45v-35h5.35l19.3,23.7v-23.7H130.2z"/>
	<path class="st1" d="M151.64,163.83l-5.55,5.7v8.95h-6.5v-35h6.5v17.95l17.3-17.95h7.3l-14.7,15.65l15.6,19.35h-7.6L151.64,163.83z
		"/>
	<path class="st1" d="M189.54,163.23v-19.75h6.5v19.5c0,7.2,3.25,10.3,8.9,10.3s8.85-3.1,8.85-10.3v-19.5h6.4v19.75
		c0,10.2-5.75,15.75-15.3,15.75C195.29,178.98,189.54,173.43,189.54,163.23z"/>
	<path class="st1" d="M275.09,143.48l-15.25,35h-6.4l-15.3-35h7.05l11.65,27l11.75-27H275.09z"/>
	<path class="st1" d="M275.94,160.98c0-10.35,8-18,18.85-18s18.85,7.6,18.85,18s-8,18-18.85,18S275.94,171.33,275.94,160.98z
		 M307.09,160.98c0-7.15-5.25-12.3-12.3-12.3s-12.3,5.15-12.3,12.3s5.25,12.3,12.3,12.3S307.09,168.13,307.09,160.98z"/>
	<path class="st1" d="M318.04,160.98c0-10.35,8-18,18.85-18s18.85,7.6,18.85,18s-8,18-18.85,18S318.04,171.33,318.04,160.98z
		 M349.19,160.98c0-7.15-5.25-12.3-12.3-12.3s-12.3,5.15-12.3,12.3s5.25,12.3,12.3,12.3S349.19,168.13,349.19,160.98z"/>
	<path class="st1" d="M385.54,178.48l-7.15-10.25c-0.45,0.05-0.9,0.05-1.35,0.05h-7.9v10.2h-6.5v-35h14.4c9.2,0,14.9,4.7,14.9,12.45
		c0,5.3-2.7,9.2-7.45,11.05l8.05,11.5H385.54z M376.74,148.98h-7.6v13.95h7.6c5.7,0,8.65-2.6,8.65-7
		C385.39,151.53,382.44,148.98,376.74,148.98z"/>
	<path class="st1" d="M435.69,170.38h-17.5l-3.45,8.1h-6.7l15.75-35h6.4l15.8,35h-6.8L435.69,170.38z M433.54,165.28l-6.6-15.3
		l-6.55,15.3H433.54z"/>
	<path class="st1" d="M450.44,143.48h6.5v29.5h18.3v5.5h-24.8V143.48z"/>
	<path class="st1" d="M480.39,143.48h6.5v29.5h18.3v5.5h-24.8V143.48z"/>
	<path class="st1" d="M536.59,173.03v5.45h-26.25v-35h25.55v5.45h-19.05v9.1h16.9v5.35h-16.9v9.65H536.59z"/>
	<path class="st1" d="M540.89,174.78l2.25-5.05c2.8,2.25,7.25,3.85,11.55,3.85c5.45,0,7.75-1.95,7.75-4.55
		c0-7.55-20.8-2.6-20.8-15.6c0-5.65,4.5-10.45,14.1-10.45c4.2,0,8.6,1.1,11.65,3.1l-2.05,5.05c-3.15-1.85-6.6-2.75-9.65-2.75
		c-5.4,0-7.6,2.1-7.6,4.75c0,7.45,20.75,2.6,20.75,15.45c0,5.6-4.55,10.4-14.15,10.4C549.24,178.98,543.79,177.28,540.89,174.78z"/>
	<path class="st1" d="M573.54,174.93c0-2.15,1.7-3.85,4.05-3.85c2.3,0,3.95,1.7,3.95,3.85c0,2.15-1.65,3.9-3.95,3.9
		C575.24,178.83,573.54,177.08,573.54,174.93z M573.89,143.48h7.4l-1.25,23.4h-4.95L573.89,143.48z"/>
</g>
<g>
	<path class="st2" d="M48.35,116.75h7.85c7.2,0,11.86,4.39,11.86,11.08c0,0.47-0.03,0.92-0.07,1.36h6.06
		c0.03-0.45,0.06-0.9,0.06-1.36c0-9.69-7.15-16.16-17.63-16.16H42.35v17.52h6V116.75z"/>
	<path class="st2" d="M67.99,195.49c-0.59,5.92-5.09,9.72-11.79,9.72h-7.85v-9.72h-6v14.79h14.13c9.98,0,16.93-5.87,17.57-14.79
		H67.99z"/>
	<polygon class="st2" points="92.9,117.67 97.86,129.19 103.8,129.19 95.9,111.67 89.99,111.67 82.11,129.19 87.97,129.19 	"/>
	<polygon class="st2" points="97.86,195.49 98.99,198.1 86.85,198.1 87.97,195.49 82.11,195.49 75.45,210.28 81.63,210.28 
		84.82,202.81 100.97,202.81 104.21,210.28 110.48,210.28 103.8,195.49 	"/>
	<rect x="114.59" y="195.49" class="st2" width="5.95" height="14.79"/>
	<polygon class="st2" points="119.53,111.67 114.59,111.67 114.59,129.19 120.55,129.19 120.55,122.1 126.32,129.19 133.8,129.19 	
		"/>
	<polygon class="st2" points="137.35,195.49 137.35,199.85 133.8,195.49 126.32,195.49 138.37,210.28 143.31,210.28 143.31,195.49 	
		"/>
	<rect x="137.35" y="111.67" class="st2" width="5.95" height="17.52"/>
	<polygon class="st2" points="167.13,126.12 180.7,111.67 173.96,111.67 157.99,128.24 157.99,111.67 151.99,111.67 151.99,129.19 
		169.6,129.19 	"/>
	<polygon class="st2" points="151.99,195.49 151.99,210.28 157.99,210.28 157.99,202.02 163.11,196.76 174.51,210.28 181.53,210.28 
		169.6,195.49 	"/>
	<rect x="198.11" y="111.67" class="st2" width="6" height="17.52"/>
	<path class="st2" d="M220.49,195.49v0.49c0,6.65-2.95,9.51-8.17,9.51s-8.22-2.86-8.22-9.51v-0.49h-6v0.72
		c0,9.42,5.31,14.54,14.17,14.54c8.82,0,14.13-5.12,14.13-14.54v-0.72H220.49z"/>
	<rect x="220.49" y="111.67" class="st2" width="5.91" height="17.52"/>
	<polygon class="st2" points="263.47,195.49 260.24,202.9 257.04,195.49 250.63,195.49 257.1,210.28 263.01,210.28 269.46,195.49 	
		"/>
	<polygon class="st2" points="249.49,111.67 242.98,111.67 250.63,129.19 257.04,129.19 	"/>
	<polygon class="st2" points="277.09,111.67 271.09,111.67 263.47,129.19 269.46,129.19 	"/>
	<path class="st2" d="M306.56,195.49c-0.62,5.88-5.23,9.99-11.28,9.99c-6.05,0-10.66-4.11-11.28-9.99h-6.06
		c0.67,8.85,7.8,15.26,17.34,15.26c9.53,0,16.67-6.36,17.34-15.26H306.56z"/>
	<path class="st2" d="M283.92,127.83c0-6.6,4.85-11.36,11.36-11.36c6.51,0,11.36,4.75,11.36,11.36c0,0.46-0.03,0.92-0.08,1.36h6.06
		c0.03-0.45,0.07-0.9,0.07-1.36c0-9.6-7.39-16.62-17.4-16.62c-10.02,0-17.4,7.06-17.4,16.62c0,0.46,0.03,0.91,0.07,1.36H284
		C283.95,128.74,283.92,128.29,283.92,127.83z"/>
	<path class="st2" d="M322.8,127.83c0-6.6,4.85-11.36,11.36-11.36c6.51,0,11.36,4.75,11.36,11.36c0,0.46-0.03,0.92-0.08,1.36h6.06
		c0.03-0.45,0.07-0.9,0.07-1.36c0-9.6-7.39-16.62-17.4-16.62c-10.02,0-17.4,7.06-17.4,16.62c0,0.46,0.03,0.91,0.07,1.36h6.06
		C322.83,128.74,322.8,128.29,322.8,127.83z"/>
	<path class="st2" d="M345.43,195.49c-0.62,5.88-5.23,9.99-11.28,9.99c-6.05,0-10.66-4.11-11.28-9.99h-6.06
		c0.67,8.85,7.8,15.26,17.34,15.26c9.53,0,16.67-6.36,17.34-15.26H345.43z"/>
	<path class="st2" d="M383.35,195.49h-8.94c-1,0.29-2.15,0.44-3.47,0.44h-7.02v-0.44h-6v14.79h6v-9.42h7.29c0.42,0,0.83,0,1.25-0.05
		l6.6,9.46h6.46l-7.43-10.62C380.4,198.77,382.18,197.34,383.35,195.49z"/>
	<path class="st2" d="M363.93,116.75h7.02c5.26,0,7.99,2.35,7.99,6.42c0,3.05-1.53,5.16-4.52,6.02h8.94
		c1.06-1.68,1.63-3.7,1.63-6.02c0-7.15-5.26-11.49-13.76-11.49h-13.29v17.52h6V116.75z"/>
	<polygon class="st2" points="417.29,117.67 422.26,129.19 428.2,129.19 420.29,111.67 414.38,111.67 406.5,129.19 412.36,129.19 	
		"/>
	<polygon class="st2" points="422.26,195.49 423.39,198.1 411.25,198.1 412.36,195.49 406.5,195.49 399.84,210.28 406.03,210.28 
		409.21,202.81 425.37,202.81 428.6,210.28 434.88,210.28 428.2,195.49 	"/>
	<rect x="438.99" y="111.67" class="st2" width="6" height="17.52"/>
	<polygon class="st2" points="444.99,195.49 438.99,195.49 438.99,210.28 461.89,210.28 461.89,205.21 444.99,205.21 	"/>
	<rect x="466.64" y="111.67" class="st2" width="6" height="17.52"/>
	<polygon class="st2" points="472.64,195.49 466.64,195.49 466.64,210.28 489.54,210.28 489.54,205.21 472.64,205.21 	"/>
	<polygon class="st2" points="515.9,125.1 500.3,125.1 500.3,116.7 517.88,116.7 517.88,111.67 494.3,111.67 494.3,129.19 
		515.9,129.19 	"/>
	<polygon class="st2" points="500.3,196.34 515.9,196.34 515.9,195.49 494.3,195.49 494.3,210.28 518.53,210.28 518.53,205.25 
		500.3,205.25 	"/>
	<path class="st2" d="M529.15,120.58c0-2.45,2.03-4.39,7.02-4.39c2.82,0,6,0.83,8.91,2.54l1.89-4.66
		c-2.82-1.85-6.88-2.86-10.76-2.86c-8.86,0-13.02,4.43-13.02,9.65c0,4.91,3.21,7.04,7.01,8.33h15.83
		C540.96,124.38,529.15,125.98,529.15,120.58z"/>
	<path class="st2" d="M530.2,195.49c5.49,1.86,12.2,1.95,12.2,6.07c0,2.4-2.12,4.2-7.15,4.2c-3.97,0-8.08-1.48-10.66-3.55
		l-2.08,4.66c2.68,2.31,7.71,3.88,12.74,3.88c8.86,0,13.06-4.43,13.06-9.6c0-2.55-0.89-4.34-2.28-5.66H530.2z"/>
	<polygon class="st2" points="558.65,199.57 558.87,195.49 553.87,195.49 554.08,199.57 	"/>
	<polygon class="st2" points="559.8,111.67 552.97,111.67 553.87,129.19 558.87,129.19 	"/>
	<path class="st2" d="M556.39,203.45c-2.17,0-3.74,1.57-3.74,3.55s1.57,3.6,3.74,3.6c2.12,0,3.65-1.61,3.65-3.6
		S558.51,203.45,556.39,203.45z"/>
</g>
</svg>
