<?xml version="1.0" encoding="utf-8"?>
<!-- Generator: Adobe Illustrator 27.0.0, SVG Export Plug-In . SVG Version: 6.00 Build 0)  -->
<svg version="1.1" id="Layer_1" xmlns="http://www.w3.org/2000/svg" xmlns:xlink="http://www.w3.org/1999/xlink" x="0px" y="0px"
	 viewBox="0 0 596.79 363.41" style="enable-background:new 0 0 596.79 363.41;" xml:space="preserve">
<style type="text/css">
	.st0{fill:#FFC507;}
	.st1{fill:none;stroke:#414141;stroke-width:3;stroke-miterlimit:10;}
	.st2{fill:none;stroke:#414141;stroke-width:2;stroke-miterlimit:10;}
</style>
<g>
	<polygon class="st0" points="455.26,304.37 270.63,30.31 128.98,329.54 	"/>
	<g>
		<path class="st1" d="M29.65,221.25c0-12.32,9.52-21.43,22.44-21.43c12.92,0,22.44,9.05,22.44,21.43
			c0,12.38-9.52,21.43-22.44,21.43C39.17,242.68,29.65,233.57,29.65,221.25z M66.73,221.25c0-8.51-6.25-14.64-14.64-14.64
			c-8.39,0-14.64,6.13-14.64,14.64c0,8.51,6.25,14.64,14.64,14.64C60.48,235.9,66.73,229.77,66.73,221.25z"/>
		<path class="st1" d="M117.61,215.24c0,9.17-6.78,14.82-17.73,14.82h-9.4v12.02h-7.74v-41.66h17.14
			C110.82,200.42,117.61,206.02,117.61,215.24z M109.81,215.24c0-5.24-3.51-8.27-10.3-8.27h-9.05v16.55h9.05
			C106.3,223.52,109.81,220.48,109.81,215.24z"/>
		<path class="st1" d="M156.59,235.6v6.49h-31.25v-41.66h30.41v6.49h-22.68v10.83h20.12v6.37h-20.12v11.49H156.59z"/>
		<path class="st1" d="M202.23,200.42v41.66h-6.37l-22.97-28.21v28.21h-7.68v-41.66h6.37l22.97,28.21v-28.21H202.23z"/>
		<path class="st1" d="M229.84,200.42h18.21c13.51,0,22.73,8.33,22.73,20.83c0,12.5-9.23,20.83-22.73,20.83h-18.21V200.42z
			 M247.69,235.54c9.28,0,15.3-5.65,15.3-14.28c0-8.63-6.01-14.28-15.3-14.28h-10.12v28.57H247.69z"/>
		<path class="st1" d="M310.24,235.6v6.49h-31.25v-41.66h30.41v6.49h-22.68v10.83h20.12v6.37h-20.12v11.49H310.24z"/>
		<path class="st1" d="M318.51,223.93v-23.51h7.74v23.21c0,8.57,3.87,12.26,10.59,12.26s10.53-3.69,10.53-12.26v-23.21h7.62v23.51
			c0,12.14-6.84,18.75-18.21,18.75C325.35,242.68,318.51,236.07,318.51,223.93z"/>
		<path class="st1" d="M393.08,242.08l-8.51-12.2c-0.54,0.06-1.07,0.06-1.61,0.06h-9.4v12.14h-7.74v-41.66h17.14
			c10.95,0,17.73,5.59,17.73,14.82c0,6.31-3.21,10.95-8.87,13.15l9.58,13.69H393.08z M382.6,206.97h-9.05v16.6h9.05
			c6.78,0,10.3-3.1,10.3-8.33C392.9,210.01,389.39,206.97,382.6,206.97z"/>
		<path class="st1" d="M425.74,200.42h18.21c13.51,0,22.73,8.33,22.73,20.83c0,12.5-9.23,20.83-22.73,20.83h-18.21V200.42z
			 M443.6,235.54c9.28,0,15.3-5.65,15.3-14.28c0-8.63-6.01-14.28-15.3-14.28h-10.12v28.57H443.6z"/>
		<path class="st1" d="M501.32,232.44h-20.83l-4.11,9.64h-7.98l18.75-41.66h7.62l18.81,41.66h-8.09L501.32,232.44z M498.76,226.37
			l-7.86-18.21l-7.8,18.21H498.76z"/>
		<path class="st1" d="M546.73,220.78h7.32v16.6c-4.34,3.51-10.41,5.3-16.31,5.3c-12.91,0-22.44-8.99-22.44-21.43
			c0-12.44,9.52-21.43,22.56-21.43c6.96,0,12.8,2.32,16.72,6.78l-4.88,4.76c-3.27-3.27-7.02-4.76-11.49-4.76
			c-8.87,0-15.12,6.01-15.12,14.64c0,8.45,6.25,14.64,15.06,14.64c2.98,0,5.89-0.6,8.57-2.14V220.78z"/>
	</g>
	<g>
		<path class="st2" d="M88.79,175.79c7.08,0,12.35,5.15,12.4,12.32h6.61c-0.04-10.44-8.09-18.06-19-18.06
			c-10.91,0-18.96,7.67-19,18.06h6.61C76.43,180.95,81.71,175.79,88.79,175.79z"/>
		<path class="st2" d="M101.19,254.23c0,0.03,0,0.06,0,0.08c0,7.21-5.29,12.4-12.4,12.4c-7.11,0-12.4-5.19-12.4-12.4
			c0-0.03,0-0.06,0-0.08h-6.61c0,0.03,0,0.06,0,0.08c0,10.43,8.07,18.15,19,18.15c10.94,0,19-7.66,19-18.15c0-0.03,0-0.06,0-0.08
			H101.19z"/>
		<path class="st2" d="M121.3,176.1h7.66c5.75,0,8.72,2.57,8.72,7.01c0,2.12-0.69,3.81-2.03,5.01h7.68
			c0.62-1.49,0.96-3.16,0.96-5.01c0-7.81-5.75-12.55-15.02-12.55h-14.52v17.56h6.55V176.1z"/>
		<path class="st2" d="M135.66,254.23c-1.46,1.3-3.69,2-6.69,2h-7.66v-2h-6.55v17.73h6.55v-10.18h7.96c7.07,0,12.08-2.79,14.07-7.55
			H135.66z"/>
		<polygon class="st2" points="174.44,185.22 157.4,185.22 157.4,176.04 176.6,176.04 176.6,170.55 150.84,170.55 150.84,188.11 
			174.44,188.11 		"/>
		<polygon class="st2" points="157.4,256.74 174.44,256.74 174.44,254.23 150.84,254.23 150.84,271.96 177.31,271.96 177.31,266.46 
			157.4,266.46 		"/>
		<rect x="184.62" y="254.23" class="st2" width="6.5" height="17.73"/>
		<rect x="209.47" y="170.55" class="st2" width="6.5" height="17.56"/>
		<polygon class="st2" points="209.47,254.23 209.47,260.57 204.31,254.23 196.14,254.23 210.58,271.96 215.97,271.96 
			215.97,254.23 		"/>
		<polygon class="st2" points="190.01,170.55 184.62,170.55 184.62,188.11 191.12,188.11 191.12,181.94 196.14,188.11 
			204.31,188.11 		"/>
		<path class="st2" d="M267.44,254.23c0,0.03,0,0.06,0,0.08c0,7.31-5.09,12.1-12.95,12.1h-8.57v-12.18h-6.55v17.73h15.42
			c11.44,0,19.26-7.06,19.26-17.64c0-0.03,0-0.06,0-0.08H267.44z"/>
		<path class="st2" d="M245.92,176.1h8.57c7.83,0,12.91,4.75,12.95,12.01h6.6c-0.04-10.54-7.84-17.56-19.25-17.56h-15.42v17.56h6.55
			V176.1z"/>
		<polygon class="st2" points="287.55,256.74 304.59,256.74 304.59,254.23 281,254.23 281,271.96 307.47,271.96 307.47,266.46 
			287.55,266.46 		"/>
		<polygon class="st2" points="304.59,185.22 287.55,185.22 287.55,176.04 306.76,176.04 306.76,170.55 281,170.55 281,188.11 
			304.59,188.11 		"/>
		<rect x="314.47" y="170.55" class="st2" width="6.55" height="17.56"/>
		<rect x="338.92" y="170.55" class="st2" width="6.45" height="17.56"/>
		<path class="st2" d="M338.92,254.23v2.1c0,7.26-3.23,10.38-8.92,10.38c-5.7,0-8.97-3.13-8.97-10.38v-2.1h-6.55v2.35
			c0,10.28,5.8,15.88,15.48,15.88c9.63,0,15.43-5.6,15.43-15.88v-2.35H338.92z"/>
		<path class="st2" d="M361.1,176.1h7.66c5.75,0,8.72,2.57,8.72,7.01c0,2.11-0.68,3.8-2.01,5.01h7.65c0.62-1.48,0.96-3.16,0.96-5.01
			c0-7.81-5.75-12.55-15.02-12.55h-14.52v17.56h6.55V176.1z"/>
		<path class="st2" d="M383.13,254.23h-7.65c-1.46,1.32-3.7,2.05-6.72,2.05h-7.66v-2.05h-6.55v17.73h6.55v-10.28h7.96
			c0.45,0,0.91,0,1.36-0.05l7.21,10.33h7.06l-8.12-11.59C379.71,259.14,381.95,257.04,383.13,254.23z"/>
		<path class="st2" d="M411.86,176.1h8.57c7.83,0,12.91,4.75,12.95,12.01h6.6c-0.04-10.54-7.84-17.56-19.25-17.56h-15.42v17.56h6.55
			V176.1z"/>
		<path class="st2" d="M433.38,254.23c0,0.03,0,0.06,0,0.08c0,7.31-5.09,12.1-12.95,12.1h-8.57v-12.18h-6.55v17.73h15.42
			c11.44,0,19.26-7.06,19.26-17.64c0-0.03,0-0.06,0-0.08H433.38z"/>
		<polygon class="st2" points="460.51,177.1 465.26,188.11 471.71,188.11 463.78,170.55 457.33,170.55 449.43,188.11 455.8,188.11 
					"/>
		<polygon class="st2" points="465.26,254.23 467.16,258.65 453.9,258.65 455.8,254.23 449.43,254.23 441.45,271.96 448.21,271.96 
			451.69,263.79 469.33,263.79 472.86,271.96 479.71,271.96 471.71,254.23 		"/>
		<path class="st2" d="M500.58,175.79c3.78,0,6.96,1.26,9.73,4.03l4.13-4.03c-3.33-3.78-8.27-5.75-14.16-5.75
			c-11.01,0-19.06,7.57-19.1,18.06h6.61C487.83,180.85,493.1,175.79,500.58,175.79z"/>
		<path class="st2" d="M507.79,254.23v10.67c-2.27,1.31-4.74,1.81-7.26,1.81c-7.46,0-12.75-5.24-12.75-12.4c0-0.03,0-0.06,0-0.08
			h-6.61c0,0.03,0,0.06,0,0.08c0,10.54,8.07,18.15,19,18.15c4.99,0,10.13-1.51,13.81-4.49v-13.75H507.79z"/>
	</g>
</g>
</svg>
