<?xml version="1.0" encoding="utf-8"?>
<!-- Generator: Adobe Illustrator 27.0.0, SVG Export Plug-In . SVG Version: 6.00 Build 0)  -->
<svg version="1.1" id="Layer_1" xmlns="http://www.w3.org/2000/svg" xmlns:xlink="http://www.w3.org/1999/xlink" x="0px" y="0px"
	 viewBox="0 0 1920 445" style="enable-background:new 0 0 1920 445;" xml:space="preserve">
<style type="text/css">
	.st0{fill:#FFC507;}
	.st1{opacity:0.6;fill:#FFC507;}
</style>
<g>
	<polygon class="st0" points="0.61,442.97 0.32,256.25 68.44,191.09 159.81,240.96 356.81,348.47 647.39,256.25 876.8,385.75 
		1051.31,205.24 1441.53,293.53 1865.05,122.83 1918.18,282.9 1919.39,442.97 	"/>
	<polygon class="st1" points="424.76,326.9 210.12,203.28 159.81,240.96 2.64,326.9 0.61,442.97 1919.39,442.97 1915.29,338.66 
		1740.11,59.89 1567,269.99 1383.97,122.83 1237.59,230.74 870.92,334.73 645.42,160.11 470.91,342.58 	"/>
	<polygon class="st1" points="-1.51,148.63 179.58,24.22 357.65,203.28 440.11,130.77 643.07,331.63 828.18,146.39 1070.89,291.46 
		1159.91,8.03 1520.37,376.63 1917.4,192.33 1921.51,442.97 2.72,442.97 	"/>
</g>
</svg>
