<?xml version="1.0" encoding="utf-8"?>
<!-- Generator: Adobe Illustrator 27.0.0, SVG Export Plug-In . SVG Version: 6.00 Build 0)  -->
<svg version="1.1" id="Layer_1" xmlns="http://www.w3.org/2000/svg" xmlns:xlink="http://www.w3.org/1999/xlink" x="0px" y="0px"
	 viewBox="0 0 412.52 318.31" style="enable-background:new 0 0 412.52 318.31;" xml:space="preserve">
<style type="text/css">
	.st0{fill:#FFC507;}
	.st1{fill:none;stroke:#000000;stroke-width:3;stroke-miterlimit:10;}
	.st2{fill:none;stroke:#000000;stroke-width:2;stroke-miterlimit:10;}
</style>
<polygon class="st0" points="311.71,279 257.71,21.95 63.89,199.95 "/>
<g>
	<path class="st1" d="M55.21,162.23v5.39H25.95v-4.26l20.19-24.65H26.29v-5.39h28.27v4.26l-20.19,24.65H55.21z"/>
	<path class="st1" d="M61.87,150.47c0-10.14,7.84-17.64,18.47-17.64c10.63,0,18.47,7.45,18.47,17.64c0,10.19-7.84,17.64-18.47,17.64
		C69.72,168.11,61.87,160.62,61.87,150.47z M92.4,150.47c0-7.01-5.14-12.05-12.05-12.05c-6.91,0-12.05,5.05-12.05,12.05
		c0,7.01,5.14,12.05,12.05,12.05C87.26,162.53,92.4,157.48,92.4,150.47z"/>
	<path class="st1" d="M131.71,167.62l-7.01-10.05c-0.44,0.05-0.88,0.05-1.32,0.05h-7.74v10h-6.37v-34.3h14.11
		c9.02,0,14.6,4.61,14.6,12.2c0,5.19-2.65,9.02-7.3,10.83l7.89,11.27H131.71z M123.08,138.71h-7.45v13.67h7.45
		c5.59,0,8.48-2.55,8.48-6.86S128.67,138.71,123.08,138.71z"/>
	<path class="st1" d="M172.19,150.08h6.03v13.67c-3.58,2.89-8.58,4.36-13.43,4.36c-10.63,0-18.47-7.4-18.47-17.64
		c0-10.24,7.84-17.64,18.57-17.64c5.73,0,10.54,1.91,13.77,5.59l-4.02,3.92c-2.7-2.69-5.78-3.92-9.46-3.92
		c-7.3,0-12.45,4.95-12.45,12.05c0,6.96,5.14,12.05,12.4,12.05c2.45,0,4.85-0.49,7.06-1.76V150.08z"/>
	<path class="st1" d="M197.23,138.71h-11.37v-5.39h29.11v5.39H203.6v28.91h-6.37V138.71z"/>
	<path class="st1" d="M249.18,162.28v5.34h-25.72v-34.3h25.04v5.34h-18.67v8.92h16.56v5.24h-16.56v9.46H249.18z"/>
	<path class="st1" d="M282.21,159.69h-17.15l-3.38,7.94h-6.57l15.44-34.3h6.27l15.48,34.3h-6.66L282.21,159.69z M280.1,154.69
		l-6.47-14.99l-6.42,14.99H280.1z"/>
	<path class="st1" d="M331.85,167.62l-0.05-22.74l-11.27,18.82h-2.84l-11.27-18.52v22.44h-6.08v-34.3h5.24l13.62,22.74l13.38-22.74
		h5.24l0.05,34.3H331.85z"/>
</g>
<g>
	<polygon class="st2" points="65.21,108.03 65.21,104.12 39.29,104.12 39.29,109.06 57.48,109.06 49.08,119.32 55.96,119.32 	"/>
	<polygon class="st2" points="55.96,180.58 49.08,180.58 38.97,192.92 38.97,196.83 65.79,196.83 65.79,191.89 46.7,191.89 	"/>
	<path class="st2" d="M88.83,108.79c6.16,0,10.78,4.38,11.03,10.53h5.88c-0.27-9.07-7.35-15.65-16.91-15.65
		c-9.56,0-16.64,6.62-16.91,15.65h5.88C78.06,113.17,82.67,108.79,88.83,108.79z"/>
	<path class="st2" d="M99.86,180.58c0.01,0.17,0.02,0.35,0.02,0.52c0,6.42-4.72,11.05-11.05,11.05c-6.33,0-11.05-4.63-11.05-11.05
		c0-0.18,0.02-0.35,0.02-0.52h-5.88c-0.01,0.18-0.03,0.35-0.03,0.52c0,9.3,7.19,16.17,16.94,16.17c9.75,0,16.94-6.83,16.94-16.17
		c0-0.18-0.02-0.35-0.03-0.52H99.86z"/>
	<path class="st2" d="M140.95,180.58h-6.57c-1.27,1.46-3.39,2.27-6.39,2.27h-6.83v-2.27h-5.84v16.25h5.84v-9.17h7.1
		c0.4,0,0.81,0,1.21-0.04l6.42,9.21h6.29l-7.23-10.33C137.91,185.34,139.95,183.3,140.95,180.58z"/>
	<path class="st2" d="M121.17,109.06H128c5.12,0,7.77,2.29,7.77,6.24c0,1.64-0.48,2.98-1.38,4.02h6.57c0.45-1.21,0.7-2.55,0.7-4.02
		c0-6.96-5.12-11.19-13.39-11.19h-12.94v15.2h5.84V109.06z"/>
	<path class="st2" d="M173,190.54c-2.02,1.17-4.22,1.62-6.47,1.62c-6.65,0-11.37-4.67-11.37-11.05c0-0.18,0.02-0.35,0.02-0.52h-5.88
		c-0.01,0.18-0.03,0.35-0.03,0.52c0,9.39,7.19,16.17,16.94,16.17c4.45,0,9.03-1.35,12.31-4v-12.53H173V190.54z"/>
	<path class="st2" d="M166.58,108.79c3.37,0,6.2,1.12,8.67,3.59l3.68-3.59c-2.96-3.37-7.37-5.12-12.62-5.12
		c-9.65,0-16.74,6.54-17,15.65h5.88C155.44,113.09,160.07,108.79,166.58,108.79z"/>
	<rect x="195.95" y="180.58" class="st2" width="5.84" height="16.25"/>
	<polygon class="st2" points="201.79,109.06 212.21,109.06 212.21,104.12 185.53,104.12 185.53,109.06 195.95,109.06 195.95,119.32 
		201.79,119.32 	"/>
	<polygon class="st2" points="241,117.19 225.82,117.19 225.82,109.02 242.94,109.02 242.94,104.12 219.98,104.12 219.98,119.32 
		241,119.32 	"/>
	<polygon class="st2" points="225.82,183.26 241,183.26 241,180.58 219.98,180.58 219.98,196.83 243.56,196.83 243.56,191.93 
		225.82,191.93 	"/>
	<polygon class="st2" points="265.97,109.96 270.01,119.32 275.76,119.32 268.9,104.12 263.14,104.12 256.3,119.32 261.97,119.32 	
		"/>
	<polygon class="st2" points="270.01,180.58 271.9,184.97 260.09,184.97 261.97,180.58 256.3,180.58 248.99,196.83 255.01,196.83 
		258.11,189.55 273.84,189.55 276.98,196.83 283.09,196.83 275.76,180.58 	"/>
	<polygon class="st2" points="324.82,104.12 320.01,104.12 311.07,119.32 316.54,119.32 319.29,114.72 319.3,119.32 324.84,119.32 	
		"/>
	<rect x="290.45" y="180.58" class="st2" width="5.57" height="16.25"/>
	<polygon class="st2" points="295.26,104.12 290.45,104.12 290.45,119.32 296.02,119.32 296.02,114.99 298.66,119.32 304.37,119.32 
			"/>
	<polygon class="st2" points="307.75,186.22 304.37,180.58 298.66,180.58 306.35,193.23 308.96,193.23 316.54,180.58 311.07,180.58 
			"/>
	<polygon class="st2" points="319.3,180.58 319.34,196.83 324.86,196.83 324.84,180.58 	"/>
</g>
</svg>
